<svg id="share" xmlns="http://www.w3.org/2000/svg" width="24" height="24" viewBox="0 0 24 24">
  <path id="Tracé_1685" data-name="Tracé 1685" d="M0,0H24V24H0Z" fill="none"/>
  <path id="Tracé_1686" data-name="Tracé 1686" d="M14.888,10.544c-3.444,0-6.509,1.194-7.984,4.456V14a7.651,7.651,0,0,1,7.984-7.955V3.887a.885.885,0,0,1,1.459-.675l5.34,4.533a.885.885,0,0,1,.022,1.331l-5.34,4.841a.886.886,0,0,1-1.481-.656Z" fill="none" stroke="#fff" stroke-linecap="round" stroke-linejoin="round" stroke-width="1.6"/>
  <path id="Tracé_1687" data-name="Tracé 1687" d="M10,3H5A2,2,0,0,0,3,5V19a2,2,0,0,0,2,2H19a2,2,0,0,0,2-2V15" fill="none" stroke="#fff" stroke-linecap="round" stroke-linejoin="round" stroke-width="1.6"/>
</svg>
